# xmcd CD database file
#
# Track frame offsets:
#	150
#	44456
#	63920
#	89866
#	98877
#	127394
#	157700
#	177232
#	201443
#
# Disc length: 2923 seconds
#
# Revision: 0
# Processed by: cddbd v1.5.2PL0 Copyright (c) Steve Scherf et al.
# Submitted via: CDex 1.70beta2
#
DISCID=810b6909
DTITLE=Han Bennink trio - Parken
DYEAR=2009
DGENRE=Jazz
TTITLE0=Music for Camping
TTITLE1=Flemische March
TTITLE2=Lady of the Lavender Mist
TTITLE3=Myckewelk
TTITLE4=Isfahan
TTITLE5=Readeater
TTITLE6=Fleurette Africaine
TTITLE7=After the March
TTITLE8=Parken
EXTD=YEAR: 2009
EXTT0=
EXTT1=
EXTT2=
EXTT3=
EXTT4=
EXTT5=
EXTT6=
EXTT7=
EXTT8=
PLAYORDER=
